<?xml version="1.0" encoding="UTF-8" standalone="no"?>
<svg
   xmlns:dc="http://purl.org/dc/elements/1.1/"
   xmlns:cc="http://creativecommons.org/ns#"
   xmlns:rdf="http://www.w3.org/1999/02/22-rdf-syntax-ns#"
   xmlns:svg="http://www.w3.org/2000/svg"
   xmlns="http://www.w3.org/2000/svg"
   viewBox="0 0 257.33334 182.66667"
   height="182.66667"
   width="257.33334"
   xml:space="preserve"
   id="svg2"
   version="1.1"><metadata
     id="metadata8"><rdf:RDF><cc:Work
         rdf:about=""><dc:format>image/svg+xml</dc:format><dc:type
           rdf:resource="http://purl.org/dc/dcmitype/StillImage" /></cc:Work></rdf:RDF></metadata><defs
     id="defs6" /><g
     transform="matrix(1.3333333,0,0,-1.3333333,0,182.66667)"
     id="g10"><g
       transform="scale(0.1)"
       id="g12"><path
         id="path14"
         style="fill:#006cb0;fill-opacity:1;fill-rule:evenodd;stroke:none"
         d="m 604.84,1366.69 c 10.39,-0.66 20.781,-13.67 22.109,-24.02 0.629,-37.07 -20.148,-65 -24.058,-100.71 C 567.852,1025.6 637.34,824.781 810.16,686.379 942.031,590.25 1144.73,522.672 1297.38,620.75 c 83.79,57.191 123.44,145.551 119.53,246.25 -5.82,93.602 -58.43,180.67 -143.55,228.75 -78.63,50.67 -205.31,44.85 -280.001,-9.76 C 897.23,1020.36 856.25,912.512 873.828,797.512 c 9.723,-48.082 30.512,-92.262 62.973,-131.25 -132.5,50.668 -246.84,197.5 -280,333.948 40.308,161.13 196.211,306.05 353.429,348.28 164.38,45.47 335.2,-1.29 460.59,-105.24 165.04,-141.64 217.03,-373.629 146.84,-575.699 C 1558.55,486.93 1366.25,348.531 1182.38,332.281 816.641,284.191 490.512,414.82 248.828,687.711 98.75,876.109 7.80859,1090.56 3.91016,1336.81 c 5.1914,14.96 18.16014,26.64 33.78904,29.88 H 604.84" /><path
         id="path16"
         style="fill:#006cb0;fill-opacity:1;fill-rule:evenodd;stroke:none"
         d="m 1864.53,1366.69 c 20.78,-2.58 24.69,-27.3 33.79,-42.23 C 1975,994.391 1861.29,665.602 1580,471.34 l -49.38,-29.879 c 137.74,143.59 202.7,348.898 148.76,551.641 29.25,108.508 16.24,240.388 -19.5,341.758 -2.58,13 9.14,27.93 19.5,31.83 61.09,3.24 122.81,0 185.15,0" /><path
         id="path18"
         style="fill:#006cb0;fill-opacity:1;fill-rule:evenodd;stroke:none"
         d="m 73.4414,215.988 -29.2617,39.614 h 33.7891 l 15.582,-21.411 16.2502,21.411 H 143.59 L 114.34,215.988 H 73.4414 M 131.879,136.73 c -2.578,18.829 -17.539,29.219 -38.3282,29.219 -31.7891,0 -43.5117,-28.59 -43.5117,-56.519 0,-28.6019 11.7226,-56.5316 43.5117,-56.5316 23.3982,0 36.3712,12.9727 38.3282,35.0821 H 181.91 C 178.672,39.2695 142.93,10.0117 94.8398,10.0117 37.6992,10.0117 0,54.1914 0,109.43 c 0,55.191 37.6992,98.75 94.8398,98.75 40.9412,0 85.1212,-25.981 87.0702,-71.45 z" /><path
         id="path20"
         style="fill:#006cb0;fill-opacity:1;fill-rule:evenodd;stroke:none"
         d="M 202.73,204.27 H 354.102 V 164.621 H 252.109 V 131.5 h 92.852 V 93.1797 H 252.109 V 56.7695 H 356.68 V 14.5781 H 202.73 V 204.27" /><path
         id="path22"
         style="fill:#006cb0;fill-opacity:1;fill-rule:evenodd;stroke:none"
         d="m 423.59,78.2109 c 0.672,-22.7304 14.961,-29.8828 35.75,-29.8828 14.961,0 30.5,5.8633 30.5,19.5313 0,16.8789 -27.262,20.1211 -54.57,27.9297 -27.258,7.7809 -55.86,20.1209 -55.86,54.5699 0,41.602 41.57,57.821 77.969,57.821 37.699,0 76.019,-18.168 76.019,-61.059 H 484.02 c 0.628,17.5 -15.579,22.738 -31.211,22.738 -10.387,0 -24.02,-3.289 -24.02,-16.25 0,-14.3 27.93,-16.879 55.859,-24.687 27.301,-7.813 54.614,-20.781 54.614,-55.2032 0,-48.1172 -40.942,-63.7071 -82.543,-63.7071 -44.18,0 -82.5,19.4883 -82.5,68.1992 h 49.371" /><path
         id="path24"
         style="fill:#006cb0;fill-opacity:1;fill-rule:evenodd;stroke:none"
         d="m 557.422,204.27 h 49.379 V 131.5 l 62.379,72.77 h 61.679 L 660.078,129.539 739.34,14.5781 H 678.238 L 626.949,93.8008 606.801,73.0195 V 14.5781 H 557.422 V 204.27" /><path
         id="path26"
         style="fill:#006cb0;fill-opacity:1;fill-rule:nonzero;stroke:none"
         d="m 840.66,215.988 42.27,39.614 h -48.09 l -26.012,-39.614 z" /><path
         id="path28"
         style="fill:#006cb0;fill-opacity:1;fill-rule:evenodd;stroke:none"
         d="M 806.25,204.27 734.801,14.5781 h 51.289 l 11.719,33.75 h 66.25 l 11.722,-33.75 H 927.73 L 856.289,204.27 Z m 3.238,-118.9106 21.453,66.2886 h 0.618 l 20.82,-66.2886 z" /><path
         id="path30"
         style="fill:#006cb0;fill-opacity:1;fill-rule:evenodd;stroke:none"
         d="m 1094.69,204.27 h -90.31 V 14.5781 h 49.37 v 63.0117 h 40.94 c 41.56,0 68.86,18.8321 68.86,65.6212 0,44.809 -33.12,61.059 -68.86,61.059 z m -7.81,-88.36 h -33.13 v 48.711 h 33.13 c 15.58,0 27.3,-7.109 27.3,-24.652 0,-17.539 -11.72,-24.059 -27.3,-24.059 z" /><path
         id="path32"
         style="fill:#006cb0;fill-opacity:1;fill-rule:evenodd;stroke:none"
         d="m 1278.52,208.18 c -59.73,0 -93.56,-43.559 -93.56,-98.75 0,-55.2386 33.83,-99.4183 93.56,-99.4183 59.8,0 93.59,44.1797 93.59,99.4183 -0.04,55.191 -33.79,98.75 -93.59,98.75 z m 0,-155.2816 c -31.8,0 -44.14,27.9297 -44.14,56.5316 0,27.929 12.34,56.519 44.14,56.519 31.83,0 44.21,-28.59 44.21,-56.519 -0.03,-28.6019 -12.38,-56.5316 -44.21,-56.5316 z" /><path
         id="path34"
         style="fill:#006cb0;fill-opacity:1;fill-rule:evenodd;stroke:none"
         d="m 1461.13,215.988 -29.92,39.614 h 34.45 l 16.22,-21.411 15.58,21.411 h 34.45 l -29.88,-39.614 h -40.9 M 1448.09,78.2109 c 1.32,-22.7304 14.96,-29.8828 36.4,-29.8828 14.96,0 29.89,5.8633 29.89,19.5313 0,16.8789 -26.65,20.1211 -54.58,27.9297 -27.3,7.7809 -55.23,20.1209 -55.23,54.5699 0,41.602 41.6,57.821 77.31,57.821 37.69,0 76.05,-18.168 76.05,-61.059 h -49.41 c 0.66,17.5 -15.59,22.738 -30.51,22.738 -11.06,0 -24.03,-3.289 -24.03,-16.25 0,-14.3 27.27,-16.879 55.2,-24.687 27.3,-7.813 55.23,-20.781 55.23,-55.2032 0,-48.1172 -40.93,-63.7071 -83.16,-63.7071 -43.55,0 -82.5,19.4883 -82.5,68.1992 z" /><path
         id="path36"
         style="fill:#006cb0;fill-opacity:1;fill-rule:evenodd;stroke:none"
         d="m 1743.05,161.379 h -56.53 V 14.5781 h -49.37 V 161.379 h -56.53 v 42.891 h 162.43 v -42.891" /><path
         id="path38"
         style="fill:#006cb0;fill-opacity:1;fill-rule:evenodd;stroke:none"
         d="m 1852.85,204.27 h -50 L 1731.99,14.5781 h 50.71 l 11.68,33.75 h 66.24 l 11.72,-33.75 h 51.96 z m -46.76,-118.9106 21.41,66.2886 h 0.66 l 20.79,-66.2886 z" /></g></g></svg>