<?xml version="1.0" encoding="UTF-8" standalone="no"?>
<svg
   xmlns:dc="http://purl.org/dc/elements/1.1/"
   xmlns:cc="http://creativecommons.org/ns#"
   xmlns:rdf="http://www.w3.org/1999/02/22-rdf-syntax-ns#"
   xmlns:svg="http://www.w3.org/2000/svg"
   xmlns="http://www.w3.org/2000/svg"
   viewBox="0 0 586.31201 108.14255"
   height="108.14256"
   width="586.31201"
   xml:space="preserve"
   id="svg2"
   version="1.1"><metadata
     id="metadata8"><rdf:RDF><cc:Work
         rdf:about=""><dc:format>image/svg+xml</dc:format><dc:type
           rdf:resource="http://purl.org/dc/dcmitype/StillImage" /></cc:Work></rdf:RDF></metadata><defs
     id="defs6" /><g
     transform="matrix(1.3333333,0,0,-1.3333333,0,109.476)"
     id="g10"><g
       transform="scale(0.1)"
       id="g12"><path
         id="path14"
         style="fill:#000000;fill-opacity:1;fill-rule:nonzero;stroke:none"
         d="M 0,821.07 V 279.43 H 380.039 V 410.059 H 148.52 V 821.07 Z M 742.5,290.488 c -13.359,-4.539 -28.441,-8.289 -45.039,-11.566 -16.871,-3.281 -34.262,-5.781 -51.871,-7.543 -17.86,-1.75 -34.969,-2.77 -51.328,-2.77 -27.703,0 -53.364,3.282 -77.543,10.313 -23.91,7.027 -45.309,18.359 -63.438,34.726 -18.359,16.133 -32.691,38.012 -43.011,65.43 -10.348,27.461 -15.622,61.684 -15.86,102.461 0.238,40.27 4.77,74.262 13.828,101.172 9.34,26.961 22.422,48.32 39.262,64.18 16.879,15.859 36.988,27.187 60.43,33.75 23.398,6.8 49.058,10.039 77.769,9.808 27.66,0.231 52.352,-1.758 73.992,-5.777 21.399,-4.031 40,-11.332 55.387,-21.922 15.352,-10.551 27.652,-25.43 36.723,-44.801 9.328,-19.097 15.347,-43.789 18.398,-73.988 3.242,-29.961 3.242,-66.723 0.231,-109.723 H 539.648 c 0.743,-13.867 3.75,-24.418 9.532,-31.488 5.55,-7.031 13.59,-11.828 24.179,-14.102 10.821,-2.5 23.911,-3.519 39.532,-3.519 7.031,0 15.589,0.281 25.16,0.75 9.57,0.781 19.609,1.293 29.679,2.262 10.321,1.289 20.391,2.269 29.731,3.558 9.527,1.481 17.848,2.77 24.879,4.25 z M 597.27,585.719 c -12.86,0 -22.891,-1.481 -30.469,-4.77 -7.539,-3 -13.09,-8.32 -17.11,-15.578 -4.031,-7.312 -7.031,-17.152 -9.07,-29.449 h 110.238 c -0.238,13.59 -1.988,23.898 -5.781,31.207 -3.75,7.301 -9.297,12.07 -17.109,14.84 -8.047,2.5 -18.129,3.75 -30.699,3.75 z m 412.26,-317.11 c -32.69,0 -61.409,3.282 -86.05,10.313 -24.691,7.027 -45.32,18.359 -61.921,34.726 -16.637,16.133 -29.219,38.012 -37.5,65.43 -8.321,27.461 -12.61,61.684 -12.61,102.461 0,40.781 4.289,74.492 12.852,101.449 8.551,27.141 21.129,48.551 38,64.41 16.609,15.622 37.269,26.954 61.918,33.481 24.652,6.562 53.082,9.801 85.311,9.57 32.97,0.231 61.68,-3.008 86.6,-9.57 24.92,-6.527 45.78,-17.859 62.42,-33.481 16.84,-15.859 29.46,-37.269 38.01,-64.41 8.56,-26.957 12.58,-60.668 12.58,-101.449 0,-40.777 -4.02,-75 -12.34,-102.461 -8.56,-27.418 -21.14,-49.297 -37.74,-65.43 -16.87,-16.367 -37.5,-27.699 -62.69,-34.726 -24.65,-7.031 -53.87,-10.313 -86.84,-10.313 z m 0,313.09 c -11.05,0.27 -20.12,-0.75 -27.421,-2.738 -7.308,-2.031 -12.847,-6.563 -17.109,-13.359 -4.02,-6.563 -7.07,-16.872 -8.828,-30.704 -1.762,-13.828 -2.5,-32.457 -2.5,-55.628 0,-22.649 0.738,-40.782 2.5,-54.372 1.758,-13.589 4.808,-23.91 8.828,-30.699 4.262,-6.801 9.801,-11.328 17.109,-13.597 7.301,-2.262 16.371,-3.282 27.421,-3.282 11.33,0 20.39,1.02 27.93,3.282 7.31,2.269 13.13,6.796 17.38,13.597 4.3,6.789 7.04,17.11 9.07,30.699 1.52,13.59 2.26,31.723 2.26,54.372 0,23.171 -0.74,41.8 -2.26,55.628 -2.03,13.832 -4.77,24.141 -9.07,30.704 -4.25,6.796 -10.07,11.328 -17.38,13.359 -7.54,1.988 -16.6,3.008 -27.93,2.738 z m 396.92,-22.39 c 8.08,1.531 15.62,2.781 22.65,3.793 7.07,0.976 13.87,1.488 19.88,1.488 15.86,0.269 27.97,-1.988 36.02,-6.801 8.05,-4.769 13.59,-12.578 16.37,-23.629 2.5,-10.82 4.02,-25.711 3.75,-44.058 V 279.43 h 142.22 v 219.961 c 0,35.507 -3.79,65.468 -10.82,89.879 -7.3,24.421 -17.89,44.031 -31.99,59.152 -14.1,14.84 -31.72,25.656 -52.34,32.219 -20.9,6.8 -44.81,10.039 -71.99,9.808 -26.68,0 -53.09,-2.027 -79.26,-5.551 -26.45,-3.75 -51.1,-8.277 -74.53,-14.097 -23.4,-5.512 -44.03,-11.563 -62.15,-17.621 V 279.43 h 142.19 z m 469.68,-1.75 v -126.61 c 0,-10.308 1.25,-18.629 4.03,-25.187 2.5,-6.293 7.3,-10.821 14.1,-13.832 7.03,-3.008 16.83,-4.532 29.18,-4.532 11.56,0.274 22.38,1.25 32.22,3.012 9.57,2.031 18.87,4.289 27.7,7.301 l 22.62,-107.223 c -11.06,-4.539 -23.64,-8.289 -38.01,-11.566 -14.06,-3.281 -29.18,-5.781 -45.27,-7.543 -15.86,-1.75 -32,-2.77 -48.09,-2.77 -21.64,0 -41.29,1.762 -58.63,6.063 -17.39,4.25 -32.23,11.558 -44.3,22.137 -12.11,10.55 -21.41,25.39 -27.97,44.543 -6.52,19.136 -9.8,43.546 -9.8,73.238 v 142.969 h -62.93 v 121.32 h 62.93 v 51.332 l 142.22,57.391 V 678.879 h 117.27 v -121.32 z m 423.32,121.32 c -10.04,-42.07 -20.86,-84.328 -33.2,-126.867 -12.58,-42.543 -25.43,-84.813 -39.26,-126.332 -10.82,43.519 -22.42,86.558 -35,129.101 -12.34,42.539 -25.94,84.071 -40.27,124.098 h -142.97 c 15.35,-43.039 30.98,-87.848 46.84,-134.68 15.58,-46.289 31.21,-93.64 46.29,-141.449 15.11,-48.078 28.94,-95.898 42.03,-143.48 -6.53,-14.329 -13.32,-28.942 -20.63,-44.02 -7.3,-15.121 -14.84,-29.961 -22.38,-44.301 -7.58,-14.597 -14.88,-28.199 -22.15,-40.539 h 155.27 c 20.16,42.07 39.77,85.86 58.64,131.129 19.14,45.313 37.5,91.641 55.11,138.711 17.39,47.07 33.99,93.871 49.34,140.941 15.35,46.797 29.45,92.618 42.03,137.688 z m 308.09,-119.57 c 8.05,1.531 15.86,2.781 22.89,3.793 7.07,0.976 13.59,1.488 19.88,1.488 15.86,0.269 27.7,-1.988 35.74,-6.801 8.33,-4.769 13.6,-12.578 16.37,-23.629 2.78,-10.82 4.03,-25.711 3.79,-44.058 V 279.43 h 142.19 v 219.961 c 0,35.507 -3.52,65.468 -10.82,89.879 -7.03,24.421 -17.85,44.031 -31.96,59.152 -14.1,14.84 -31.44,25.656 -52.34,32.219 -20.66,6.8 -44.8,10.039 -71.99,9.808 -26.68,0 -53.13,-2.027 -79.3,-5.551 -26.17,-3.75 -51.09,-8.277 -74.49,-14.097 -23.4,-5.512 -44.06,-11.563 -62.15,-17.621 V 279.43 h 142.19 z M 3272.5,299.82 c -14.34,-5.039 -29.92,-9.332 -46.56,-13.082 -16.6,-3.789 -33.71,-7.308 -51.1,-9.847 -17.61,-2.731 -35.23,-4.762 -52.34,-6.289 -17.11,-1.25 -33.71,-1.993 -49.06,-1.993 -34.26,0 -62.7,1.762 -85.08,5.782 -22.66,4.3 -40.55,11.097 -53.36,20.898 -13.09,9.813 -22.42,23.402 -27.7,40.512 -5.54,17.109 -8.04,38.789 -7.81,64.961 0,27.66 3.56,50.308 10.59,67.418 7.03,17.148 17.11,30.242 30.7,39.3 13.36,9.059 29.69,15.348 48.83,18.36 19.14,3.281 40.78,4.762 65.19,4.531 13.09,0 26.92,-0.742 41.29,-2.5 14.57,-1.801 28.44,-4.062 41.76,-6.801 0.27,10.551 -0.51,19.379 -2.26,26.41 -1.76,7.301 -5.28,13.079 -10.82,17.379 -5.28,4.262 -13.6,7.539 -24.42,9.301 -11.05,2.031 -25.66,3.012 -44.06,3.012 -16.33,-0.242 -31.95,-0.981 -46.8,-3.012 -15.11,-1.988 -29.18,-4.262 -42.54,-7.308 -13.32,-3 -25.93,-6.012 -37.26,-9.293 l -20.12,111.25 c 17.38,4.019 36.25,7.812 57.15,11.05 20.62,3.282 41.76,5.782 63.67,7.813 21.88,1.758 42.77,2.777 63.16,2.777 30.2,0.231 56.37,-2.269 78.79,-7.539 22.39,-5.551 41.02,-14.101 55.86,-25.941 14.85,-12.071 25.94,-28.199 33.25,-48.09 7.3,-19.879 11.05,-44.527 11.05,-73.75 z m -134.65,80.039 v 53.59 c -6.8,1.531 -14.84,2.539 -23.4,3.051 -8.55,0.469 -17.61,0.738 -26.95,0.738 -10.31,0 -18.59,-0.5 -24.88,-2.027 -6.33,-1.481 -10.82,-4.762 -13.87,-9.289 -2.77,-4.774 -4.02,-11.844 -4.02,-21.41 -0.24,-9.063 0.74,-16.09 2.77,-21.133 2.27,-4.77 6.29,-8.051 12.07,-9.809 5.78,-1.761 14.38,-2.539 25.66,-2.261 9.07,0 18.13,0.742 27.47,1.992 9.29,1.758 17.85,3.789 25.15,6.558 z m 818.24,26.411 c -7.03,-2.782 -15.35,-5.508 -24.41,-8.051 -9.3,-2.5 -19.38,-4.77 -29.92,-6.52 -10.82,-1.758 -21.92,-2.539 -33.48,-2.539 -11.83,-0.238 -22.15,0.512 -31.48,2.539 -9.07,1.992 -16.6,5.781 -22.66,11.789 -6.29,6.063 -10.82,15.121 -14.06,27.192 -3.28,12.109 -4.81,28.199 -4.81,48.59 0,21.41 1.53,38.25 4.81,50.589 3.24,12.582 7.77,21.641 14.06,27.422 6.06,6.059 13.59,9.848 22.66,11.328 9.33,1.762 19.65,2.539 31.48,2.27 10.82,-0.238 21.64,-0.981 32.19,-2.5 10.86,-1.758 21.17,-3.789 30.74,-6.289 9.53,-2.27 17.85,-4.531 24.88,-6.801 l 27.97,118.051 c -10.58,3.75 -23.44,6.789 -37.77,9.57 -14.61,2.262 -29.69,4.262 -45.82,5.512 -15.59,1.519 -31.21,2.027 -46.06,2.027 -29.68,0.231 -56.6,-3.008 -81.01,-9.808 -24.42,-6.563 -45.59,-17.891 -63.71,-33.75 -17.85,-15.86 -31.96,-37.219 -41.76,-64.18 -9.81,-26.91 -14.61,-60.902 -14.84,-101.172 0.23,-40.777 5.03,-75 14.84,-102.461 9.8,-27.418 23.63,-49.297 41.52,-65.43 17.85,-16.367 39.03,-27.699 63.67,-34.726 24.42,-7.031 51.61,-10.313 81.29,-10.313 10.59,0 21.64,0.512 33.48,1.25 11.6,1.02 23.16,2.032 34.73,3.789 11.83,1.762 22.93,3.75 33.47,6.024 10.36,2.527 19.65,5.308 27.97,8.316 z m 70.51,272.609 v -121.32 h 153.75 c -5.27,-9.809 -12.81,-22.661 -22.15,-38.008 -9.29,-15.629 -19.88,-32.742 -31.95,-51.84 -12.07,-18.902 -24.65,-38.281 -37.73,-58.402 -13.09,-20.149 -26.18,-39.758 -39.3,-58.668 -12.81,-19.102 -25.16,-36.481 -36.72,-52.582 V 279.43 h 372.23 V 400.762 H 4230.2 c 9.57,13.59 20.39,29.179 31.71,46.047 11.33,16.613 23.17,34.222 35.24,52.863 12.34,18.629 24.41,36.988 36.25,55.848 12.07,18.64 23.67,37 34.49,54.609 10.55,17.66 20.63,34.262 29.45,49.34 v 19.41 z" /><path
         id="path16"
         style="fill:#c51b65;fill-opacity:1;fill-rule:evenodd;stroke:none"
         d="m 3417.23,188.301 c -44.3,-34.223 -105.94,-39.262 -160.08,-24.422 -20.39,5.82 -22.89,13.359 -16.6,30.473 25.66,70.238 82.3,107.457 141.44,76.019 -13.83,12.34 -27.42,27.418 -40.78,44.527 -35.47,46.563 26.17,176.723 55.12,205.903 11.33,11.828 19.41,6.801 29.22,-1.992 78,-70.75 95.9,-170.899 54.88,-254.5 74.49,55.902 176.17,56.64 260,-7.539 10.55,-7.809 16.84,-14.84 7.54,-28.2 -23.67,-33.711 -140.2,-118.281 -192.31,-91.601 -19.37,9.801 -36.99,20.633 -51.32,31.722 41.75,-52.339 15.35,-114.7691 -49.11,-153.0504 -15.58,-9.28904 -23.63,-8.03904 -32.96,10.8203 -24.42,50.5899 -30.71,112.0271 -5.04,161.8401 z" /></g></g></svg>