<?xml version="1.0" encoding="UTF-8" standalone="no"?>
<svg
   xmlns:dc="http://purl.org/dc/elements/1.1/"
   xmlns:cc="http://creativecommons.org/ns#"
   xmlns:rdf="http://www.w3.org/1999/02/22-rdf-syntax-ns#"
   xmlns:svg="http://www.w3.org/2000/svg"
   xmlns="http://www.w3.org/2000/svg"
   viewBox="0 0 900 600"
   height="600"
   width="900"
   xml:space="preserve"
   id="svg2"
   version="1.1"><metadata
     id="metadata8"><rdf:RDF><cc:Work
         rdf:about=""><dc:format>image/svg+xml</dc:format><dc:type
           rdf:resource="http://purl.org/dc/dcmitype/StillImage" /></cc:Work></rdf:RDF></metadata><defs
     id="defs6"><clipPath
       id="clipPath30"
       clipPathUnits="userSpaceOnUse"><path
         id="path28"
         d="m 2371.68,1124.53 c -370.04,178.24 -899.3,531.95 -899.3,1231.76 0,699.76 33.48,1018.01 33.48,1018.01 h 1731.68 c 0,0 33.44,-318.25 33.44,-1018.01 0,-699.77 -529.26,-1053.52 -899.3,-1231.76 z" /></clipPath><clipPath
       id="clipPath36"
       clipPathUnits="userSpaceOnUse"><path
         id="path34"
         d="M 1470,1120 H 3280 V 3380 H 1470 Z" /></clipPath></defs><g
     transform="matrix(1.3333333,0,0,-1.3333333,0,599.99999)"
     id="g10"><g
       transform="scale(0.1)"
       id="g12"><path
         id="path14"
         style="fill:#ee1c25;fill-opacity:1;fill-rule:nonzero;stroke:none"
         d="M 0,0 H 6750 V 4500 H 0 Z" /><path
         id="path16"
         style="fill:#0b4ea2;fill-opacity:1;fill-rule:nonzero;stroke:none"
         d="M 0,1500 H 6750 V 4500 H 0 Z" /><path
         id="path18"
         style="fill:#ffffff;fill-opacity:1;fill-rule:nonzero;stroke:none"
         d="M 0,3000 H 6750 V 4500 H 0 Z" /><path
         id="path20"
         style="fill:#ffffff;fill-opacity:1;fill-rule:nonzero;stroke:none"
         d="m 2372.27,1023.75 c -403.52,195 -981.02,579.77 -981.02,1342.5 0,762.73 37.5,1110 37.5,1110 H 3315 c 0,0 37.5,-347.27 37.5,-1110 0,-762.73 -577.5,-1147.5 -980.23,-1342.5 z" /><path
         id="path22"
         style="fill:#ee1c25;fill-opacity:1;fill-rule:nonzero;stroke:none"
         d="m 2372.27,1125 c -370.51,178.52 -900,532.5 -900,1232.27 0,699.72 33.75,1017.73 33.75,1017.73 h 1731.71 c 0,0 33.75,-318.01 33.75,-1017.73 0,-700.51 -529.49,-1053.75 -900,-1232.27 z" /><g
         id="g24"><g
           clip-path="url(#clipPath30)"
           id="g26"><g
             clip-path="url(#clipPath36)"
             id="g32"><path
               id="path38"
               style="fill:#ffffff;fill-opacity:1;fill-rule:nonzero;stroke:none"
               d="m 2450.82,2539.77 c 100.16,-1.65 295.63,-5.55 469.69,52.69 0,0 -4.57,-62.3 -4.57,-134.84 0,-72.58 4.57,-134.85 4.57,-134.85 -159.65,53.4 -356.8,54.53 -469.69,53.09 v -386.48 h -158.28 v 386.48 c -112.89,1.44 -310.04,0.31 -469.69,-53.09 0,0 4.57,62.27 4.57,134.85 0,72.54 -4.57,134.84 -4.57,134.84 174.03,-58.24 369.49,-54.34 469.69,-52.69 v 242.69 c -91.29,0.82 -222.89,-3.51 -371.68,-53.32 0,0 4.61,62.27 4.61,134.84 0,72.58 -4.61,134.85 -4.61,134.85 148.55,-49.69 280,-54.14 371.29,-53.36 -4.69,153.71 -49.49,347.46 -49.49,347.46 0,0 92.18,-7.19 129.02,-7.19 36.87,0 128.98,7.19 128.98,7.19 0,0 -44.76,-193.75 -49.45,-347.42 91.29,-0.82 222.74,3.63 371.29,53.32 0,0 -4.61,-62.27 -4.61,-134.85 0,-72.57 4.61,-134.84 4.61,-134.84 -148.79,49.81 -280.39,54.14 -371.68,53.32 z" /><path
               id="path40"
               style="fill:#0b4ea2;fill-opacity:1;fill-rule:evenodd;stroke:none"
               d="m 2355.35,894.961 -766.68,683.399 c 0,0 98.05,316.99 289.34,316.99 152.03,0 207.5,-122.58 207.5,-122.58 0,0 99.84,258.4 286.17,258.4 186.33,0 286.13,-258.4 286.13,-258.4 0,0 55.51,122.58 207.54,122.58 191.29,0 289.3,-316.99 289.3,-316.99 z" /></g></g></g></g></g></svg>